<svg width="738" height="733" viewBox="0 0 738 733" fill="none" xmlns="http://www.w3.org/2000/svg">
<rect width="738" height="733" fill="#E4C5B1"/>
<path d="M600.5 599.5L140.5 591.5C34 499 51 206 379 158.5C696 208.5 683.5 498 600.5 599.5Z" fill="#9BE7C7"/>
<path d="M537 490C644.204 532.801 659.661 614.501 653.988 650H542.849L537 490Z" fill="#FCB1AB"/>
<circle cx="112" cy="170" r="41" fill="#6D9589"/>
<path fill-rule="evenodd" clip-rule="evenodd" d="M128.193 132.322C123.226 130.184 117.751 129 112 129C90.1846 129 72.3486 146.038 71.073 167.533L128.193 132.322ZM74.4878 186.573C76.2717 190.605 78.6865 194.295 81.607 197.519L150.249 155.205C148.655 151.086 146.414 147.289 143.652 143.938L74.4878 186.573ZM98.0116 208.552L152.719 174.828C150.329 195.197 133.01 211 112 211C107.088 211 102.377 210.136 98.0116 208.552Z" fill="#9BE7C7"/>
<path d="M676.143 326.757L676.132 326.784L676.122 326.812C674.816 330.373 673.272 332.773 671.605 334.307C669.971 335.81 668.143 336.556 666.072 336.701C661.759 337.002 656.21 334.708 649.448 330.259C642.771 325.865 635.3 319.639 627.221 312.658C625.311 311.007 623.368 309.315 621.395 307.598C615.064 302.085 608.438 296.314 601.667 290.838C595.081 285.51 588.067 280.206 581.219 275.026C578.838 273.226 576.477 271.44 574.161 269.674C565.15 262.802 556.82 256.225 550.448 250.086C544 243.873 539.885 238.407 538.818 233.796C538.305 231.583 538.506 229.617 539.467 227.8C540.43 225.979 542.251 224.13 545.306 222.344C547.94 221.566 551.994 221.624 557.345 222.754C562.77 223.899 569.294 226.095 576.584 229.326C591.157 235.784 608.621 246.302 626.193 260.515C643.883 274.824 658.117 287.466 667.058 298.65C676.072 309.926 679.21 319.091 676.143 326.757ZM569.141 239.448C567.188 241.862 567.508 245.244 568.655 248.507C569.845 251.894 572.156 255.853 575.297 260.112C581.598 268.654 591.516 278.779 603.548 288.512C615.465 298.15 626.468 306.919 635.136 312.49C639.453 315.264 643.337 317.343 646.552 318.301C649.662 319.228 652.981 319.322 655.055 316.758C656.924 314.447 656.957 310.862 656.184 307.191C655.378 303.364 653.562 298.793 650.874 293.893C645.491 284.078 636.45 272.659 624.312 262.841C612.28 253.109 600.306 245.525 590.635 241.15C585.814 238.968 581.459 237.535 577.899 237.079C574.468 236.64 571.093 237.033 569.141 239.448Z" fill="#6D9589" stroke="black" stroke-width="4"/>
<rect x="556.5" y="239.5" width="14" height="13" fill="#E4C5B1" stroke="black"/>
<rect x="639.5" y="312.5" width="14" height="13" fill="#E4C5B1" stroke="black"/>
<path d="M669.397 331.454C661.523 341.188 626.455 325.878 591.07 297.256C555.685 268.635 533.383 237.541 541.257 227.806C549.131 218.071 584.2 233.382 619.585 262.004C654.969 290.625 677.271 321.719 669.397 331.454ZM562.093 244.659C556.779 251.228 571.828 272.21 595.706 291.524C619.584 310.838 645.947 323.948 649.709 316.624C655.022 310.055 638.826 287.049 614.948 267.736C591.07 248.422 567.406 238.09 562.093 244.659Z" fill="#9BE7C7"/>
<circle cx="608" cy="278" r="50" fill="#FCB1AB" stroke="black" stroke-width="10"/>
<circle cx="616" cy="268" r="14.5" fill="#FAFBEF" stroke="black" stroke-width="7"/>
<path d="M671.017 334.341L672.317 332.735L670.669 331.488L650.888 316.528L649.344 315.36L648.127 316.865C647.599 317.518 646.191 318.172 642.986 317.759C641.68 317.59 639.75 316.789 637.291 315.576C636.438 315.154 635.518 314.682 634.57 314.195C632.965 313.371 631.279 312.505 629.7 311.777C624.81 309.522 619.311 306.421 613.531 302.647C607.753 298.875 601.83 294.519 596.112 289.836C590.395 285.153 585.009 280.247 580.273 275.408C575.533 270.567 571.559 265.91 568.57 261.718C565.562 257.498 563.694 253.942 562.93 251.237C562.147 248.464 562.68 247.277 563.27 246.769L564.956 245.317L563.333 243.795L543.868 225.541L542.538 224.294L541.174 225.503C539.978 226.563 538.83 228.479 538.139 230.635C537.434 232.837 537.116 235.558 537.883 238.274C539.24 243.08 542.381 248.89 546.976 255.337C551.591 261.811 557.659 268.909 564.813 276.217C571.97 283.528 580.087 290.921 588.688 297.966C597.289 305.01 606.211 311.572 614.932 317.266C623.651 322.958 632.013 327.681 639.528 331.147C647.021 334.603 653.621 336.786 658.905 337.467C664.068 338.133 668.526 337.421 671.017 334.341Z" fill="#4F6676" stroke="black" stroke-width="4"/>
<path d="M586.069 113.173C586.6 111.199 589.4 111.199 589.931 113.173L593.004 124.585C593.189 125.273 593.727 125.811 594.415 125.996L605.827 129.069C607.801 129.6 607.801 132.4 605.827 132.931L594.415 136.004C593.727 136.189 593.189 136.727 593.004 137.415L589.931 148.827C589.4 150.801 586.6 150.801 586.069 148.827L582.996 137.415C582.811 136.727 582.273 136.189 581.585 136.004L570.173 132.931C568.199 132.4 568.199 129.6 570.173 129.069L581.585 125.996C582.273 125.811 582.811 125.273 582.996 124.585L586.069 113.173Z" fill="#FDFDF2"/>
<path d="M69.0688 276.173C69.6001 274.199 72.3999 274.199 72.9312 276.173L76.0039 287.585C76.1893 288.273 76.7269 288.811 77.4152 288.996L88.8273 292.069C90.8007 292.6 90.8007 295.4 88.8274 295.931L77.4152 299.004C76.7269 299.189 76.1893 299.727 76.0039 300.415L72.9312 311.827C72.3999 313.801 69.6001 313.801 69.0688 311.827L65.9961 300.415C65.8107 299.727 65.2731 299.189 64.5848 299.004L53.1727 295.931C51.1993 295.4 51.1993 292.6 53.1726 292.069L64.5848 288.996C65.2731 288.811 65.8107 288.273 65.9961 287.585L69.0688 276.173Z" fill="#FDFDF2"/>
<path d="M143.069 362.173C143.6 360.199 146.4 360.199 146.931 362.173L150.004 373.585C150.189 374.273 150.727 374.811 151.415 374.996L162.827 378.069C164.801 378.6 164.801 381.4 162.827 381.931L151.415 385.004C150.727 385.189 150.189 385.727 150.004 386.415L146.931 397.827C146.4 399.801 143.6 399.801 143.069 397.827L139.996 386.415C139.811 385.727 139.273 385.189 138.585 385.004L127.173 381.931C125.199 381.4 125.199 378.6 127.173 378.069L138.585 374.996C139.273 374.811 139.811 374.273 139.996 373.585L143.069 362.173Z" fill="#FDFDF2"/>
<path d="M219.5 245C212.833 244.167 199.1 240.1 197.5 230.5L212 221.5C205.667 216.333 193.9 203.2 197.5 192C188.167 179.5 174.5 151.5 194.5 139.5C191 138.667 184.1 135 184.5 127C201.5 126.167 238.4 121.8 250 111C247 110 241.7 106.5 244.5 100.5C256 99.6666 281.6 100.1 292 108.5C290 103.833 286.6 93.8 289 91C291.4 88.2 304.333 96.1666 310.5 100.5C316 106.667 327.2 120 328 124C342.5 116.167 372.2 100.5 375 100.5C378.5 100.5 386.5 104 383.5 115.5C390.667 117.333 405.3 121.6 406.5 124C411 114.5 424.6 94.6 443 91C445 91.6666 447.8 96.0999 443 108.5C455.334 104 482.6 96.6 493 103C493 104.667 491.4 108.6 485 111L516 124L548.5 126C553 127.333 557.4 131.7 539 138.5C545.834 144.833 556.3 162 543.5 180L537 189.5C538.334 197.167 537.7 214.1 524.5 220.5C527.334 223.667 533.8 229.8 537 229C536.5 234 531.6 244 516 244L541 265.5C543.667 275.833 545.4 298.2 531 305L538 316C525.5 338.5 513.5 338.5 498 338.5C506.333 344.5 528.5 349.5 535.5 352C544.197 355.106 545.334 387 545.5 406L543.5 518C552.167 526.5 568.5 555.4 564.5 603C574.834 610.833 592.2 631 579 649H607.5C608.155 649.917 608.614 650.749 608.913 651.5C610.439 655.335 607.812 657.082 606 657.5H551H526H481H453.5H276.5H257.5C257.5 657.5 207.855 658.357 205 657.5C202.145 656.643 161.947 647.867 163 645.5L156.5 630.5L124.5 636.5C110.167 628.667 92.9999 627 88.5 590C87.6667 575 87.7 540.3 92.5 523.5C93.5 520.167 99.1 513.5 113.5 513.5C129 515.5 163 523.1 175 537.5L189 517.5L187 422V372.5C188.5 365.333 195.1 350.2 209.5 347L236.5 343.5L238.5 340C238.5 340 224.673 341.497 217 338C208.202 333.99 200 320 200 320C200 320 196.5 315 199.5 311.5L202 308C194.167 302.667 185.5 286.1 197.5 270.5L194 266L219.5 245Z" fill="#FAFBEF"/>
<path d="M90.5 553C102.1 573.8 134.167 586.667 143 586.5L122.5 630L107 622C93 620 90.5 573.667 90.5 553Z" fill="#D0B1AD"/>
<path d="M242.5 388L190 406.806V510.216C190 510.216 208.141 509.843 215.5 510.216V511.5L540 521.5V406.806L486.5 394.582C389.3 493.878 283.333 431.567 242.5 388Z" fill="#EC938F"/>
<path d="M219.5 611.5L218 598C256.8 570.4 295.833 586.5 310.5 598V613.5C270.1 581.5 233 598.833 219.5 611.5Z" fill="#EF7A83"/>
<path d="M420.5 611.739L419 598.239C457.8 570.639 499.333 586.739 514 598.239L511.5 613.739C471.1 581.739 434 599.073 420.5 611.739Z" fill="#EF7A83"/>
<path d="M418 583.141V601.141C457.6 571.141 500 587.833 515 599.5V578C471.4 548.4 431.667 569.641 418 583.141Z" fill="#FCB1AB"/>
<path d="M509 438C462.2 441.6 433.833 484.141 430 507.641C442.4 474.841 486.5 457.975 507 453.641L509 438Z" fill="#FCB1AB"/>
<path d="M489 397.141C476.6 398.741 469.833 388.333 467.5 384.5C479.5 384.5 487.833 370.308 491 361.641C532.6 356.441 544.333 396.5 540.5 411C531.5 409.833 501.4 395.541 489 397.141Z" fill="#FCB1AB"/>
<path d="M313.5 583.5V601.5C273.9 571.5 234 587.333 219 599L218 580C261.6 550.4 299.833 570 313.5 583.5Z" fill="#FCB1AB"/>
<path d="M224.5 431C271.3 434.6 297.667 484.5 301.5 508C289.1 475.2 245 458.333 224.5 454V431Z" fill="#FCB1AB"/>
<path d="M235 392.5C247.4 394.1 259.667 385.833 262 382C250 382 243.667 370.667 240.5 362C198.9 356.8 189.667 398 193.5 412.5C202.5 411.333 222.6 390.9 235 392.5Z" fill="#FCB1AB"/>
<path d="M226 386C262.667 407.211 386 453.223 494.5 395.5" stroke="#FCB1AB" stroke-width="9"/>
<path d="M499 399C497.246 400.918 494.266 403.059 490.184 405.28L462.5 425L355 438.5L260.5 423.5L238.5 399C351.133 446.635 457.027 423.317 490.184 405.28L499 399Z" fill="#EF7A83" stroke="#EF7A83" stroke-width="6"/>
<path d="M177 572.5C178.5 558.5 164 539 214.5 507.5L214.5 523.139C215.294 499.879 219.243 470.918 225.5 459C246.667 467.333 303.1 489.7 309.5 520.5L311 561.5C300.333 552.333 255.9 540.3 217.5 555.5C215.828 553.313 214.85 547.188 214.5 538.955L214.5 558L177 572.5Z" fill="#9BE7C7"/>
<path d="M317.5 565C330.3 582.6 353.833 578 362.5 577V465V452.5C325.5 455.5 271.833 436.333 241 423V430C246.5 426.5 276 445.5 287 457C306 476.864 312.333 532.833 317.5 565Z" fill="#9BE7C7"/>
<path d="M562.5 574.5C562.5 526.219 539.051 521.128 519.048 511.362C517.623 489.653 514.155 466.819 509 457C487.833 465.333 431.4 492.2 425 523L420 564.5C430.667 555.333 478.1 544.3 516.5 559.5C517.31 558.441 517.965 556.363 518.47 553.5L562.5 574.5Z" fill="#9BE7C7"/>
<path d="M414 558C401.2 575.6 380.667 578 372 577V465V452.5C409 455.5 462.667 436.333 493.5 423V430C488 426.5 458.5 445.5 447.5 457C428.5 476.864 419.167 525.833 414 558Z" fill="#9BE7C7"/>
<path d="M152.714 545H176.714L179 582.327L138.429 602L127 581.823L152.714 545Z" fill="#9BE7C7"/>
<path d="M171 611L176 573L212.5 553.5L217.5 611C208.5 595 185.5 596.5 171 611Z" fill="#6D9589"/>
<path d="M217.5 570.5V552C259.9 530.8 304.167 551.333 316 561.5L310.5 573C274.1 551.4 231.833 561.5 217.5 570.5Z" fill="#6D9589"/>
<path d="M362.5 575.5C344.5 579.1 324.333 565.333 317.5 557L309 653C313.4 659 363.167 654 377 653L362.5 575.5Z" fill="#6D9589"/>
<path d="M127.459 582C145.492 600.474 167.908 582.622 176 573L179 597L163.284 611.312V644L113 624.433L127.459 582Z" fill="#6D9589"/>
<path d="M559 602.5V572.733L518 547L519.5 607C527.9 602.2 550.333 600.5 559 602.5Z" fill="#6D9589"/>
<path d="M516.5 575V557.5C474.1 536.3 433.333 551.833 421.5 562L423 572.733C459.4 551.133 502.167 566 516.5 575Z" fill="#6D9589"/>
<path d="M369 576C387 579.6 407.167 565.833 414 557.5L419.5 647C415.1 653 382.833 654.5 369 653.5V576Z" fill="#6D9589"/>
<path d="M235 414.481V428.835C339.354 472.902 435.012 461.019 501 422.398L491.265 412C380.906 463.614 274.439 435.16 235 414.481Z" fill="#6D9589"/>
<rect x="329.5" y="468.5" width="76" height="65" rx="12.5" fill="#FAFBEF" stroke="black" stroke-width="7"/>
<rect x="341" y="481" width="52" height="24" fill="#9BE7C7"/>
<circle cx="347.5" cy="516.5" r="5.5" fill="#743F4C"/>
<circle cx="387.5" cy="516.5" r="5.5" fill="#6D9589"/>
<circle cx="367.5" cy="516.5" r="5.5" fill="#1F3059"/>
<path d="M491.808 278L532.308 263.5L511.308 243.5L534 231.5L521 219L532.308 206L534 191C534 191 526.257 200.741 522.308 202.5C512.029 207.079 499.308 218 499.308 218C499.308 218 488.751 221.083 484.808 217C470.808 202.5 456.808 182.5 456.808 182.5L472.308 236.5L491.808 278Z" fill="#40535D"/>
<path d="M411.283 141.5C414.883 129.1 424.449 120 428.783 117C426.383 123.8 431.449 127.833 434.283 129C447.483 117 463.449 118.333 469.783 120.5L511.283 138.5L532.783 148.5C536.283 150.667 548.9 158.8 546.5 168C544.1 177.2 533.783 187.667 530.283 190.5C524.283 198.5 510.949 200.667 505.283 200C498.449 197.333 479.9 188.9 477.5 178.5C475.1 168.1 464.642 159 460.308 155C455.808 148.5 447 150 439 157.5C432.6 163.5 441.808 160 441.808 160C449.475 167 455.908 172.9 460.308 190.5C464.708 208.1 500.808 242.333 515.308 251C515.308 251 509.647 257.64 505.283 257.5C495.309 257.18 483.283 244.5 483.283 244.5C482.883 248.1 487.043 254.736 491.808 259.5C502.804 270.493 523.475 265.667 531.308 264.5C538.142 269.167 537.483 275.2 530.283 272C523.083 268.8 515.449 276 511.283 280C503.283 291.833 480.283 315.4 452.283 315C424.283 314.6 403.283 286.167 396.283 272C392.116 262.167 388.583 235.5 407.783 207.5C426.983 179.5 418.116 151.833 411.283 141.5Z" fill="#6D9589"/>
<ellipse cx="429.308" cy="267" rx="19.5" ry="21" fill="black"/>
<circle cx="427.808" cy="260" r="7" fill="#FAFBEF"/>
<ellipse cx="8.5" cy="5.5" rx="8.5" ry="5.5" transform="matrix(-1 0 0 1 439.808 218)" fill="black"/>
<path d="M496.308 216L507.5 212L512.5 204.5L488 192.5L457.308 151.5L444.308 153L436.808 163L451.308 169.5C482.908 218.3 494.475 220.833 496.308 216Z" fill="#EF7A83"/>
<path d="M244 278L203.5 263.5L224.5 243.5L202 232.5L217 221.5L202 204L199 186.5C199 186.5 209.552 200.741 213.5 202.5C223.779 207.079 236.5 218 236.5 218C236.5 218 247.057 221.083 251 217C265 202.5 279 182.5 279 182.5L263.5 236.5L244 278Z" fill="#40535D"/>
<path d="M324.526 141.5C320.926 129.1 311.359 120 307.026 117C309.426 123.8 304.359 127.833 301.526 129C288.326 117 272.359 118.333 266.026 120.5L224.526 138.5L203.026 148.5C199.526 150.667 193.126 157.3 195.526 166.5C197.926 175.7 205.526 183.667 209.026 186.5C215.026 194.5 227.859 195.167 233.526 194.5C240.359 191.833 254.626 183.9 257.026 173.5C259.426 163.1 269.167 156.5 273.5 152.5C278 146 293.526 147.5 301.526 155C307.926 161 294 160 294 160C286.333 167 279.9 172.9 275.5 190.5C271.1 208.1 235 242.333 220.5 251C220.5 251 226.162 257.64 230.526 257.5C240.5 257.18 252.526 244.5 252.526 244.5C252.926 248.1 248.765 254.736 244 259.5C233.004 270.493 212.333 265.667 204.5 264.5C197.667 269.167 198.326 275.2 205.526 272C212.726 268.8 220.359 276 224.526 280C232.526 291.833 255.526 315.4 283.526 315C311.526 314.6 332.526 286.167 339.526 272C343.692 262.167 347.226 235.5 328.026 207.5C308.826 179.5 317.692 151.833 324.526 141.5Z" fill="#6D9589"/>
<ellipse cx="19.5" cy="21" rx="19.5" ry="21" transform="matrix(-1 0 0 1 326 246)" fill="black"/>
<circle cx="7" cy="7" r="7" transform="matrix(-1 0 0 1 315 253)" fill="#FAFBEF"/>
<ellipse cx="304.5" cy="223.5" rx="8.5" ry="5.5" fill="black"/>
<path d="M234.5 217L193.5 178.5L231 195L245.5 187.5L278.5 151.5L291.5 153L299 163L284.5 169.5C252.9 218.3 236.333 221.833 234.5 217Z" fill="#EF7A83"/>
<path d="M199.5 277L226 304L214 311.5C221.667 318.667 240.1 331.7 252.5 326.5C249.609 345.61 260.645 372.922 302.604 346.261L298.5 336L303.5 327.5L307.5 343C318.667 353.5 341 372.4 367 352C377.192 360.803 403.268 369.262 422.952 348.5C423.752 345.3 427.167 337 428.5 330.5H435L433.797 347.828C449.377 358.836 473.35 368.814 484.5 338.5L482.5 326.5C491.566 325.387 512.469 320.752 519.576 310.946L508 304L536.5 277L539 292L528.5 304L534.5 316L527 326.5L517.5 333H492L494 352L484.5 374.5L473 384L455 376.5L447 394L437 396.5L431.5 389L415 404C384.167 410.833 314.3 416.4 281.5 384V376.5L256.5 384L240 352L244 338.5L219.5 335.5L203.5 317L206 309.5C201.667 303.667 194.3 289 199.5 277Z" fill="#E4C5B1"/>
<path d="M312 349.5L305 353C357 409.4 407.667 379.833 426.5 358L420 353C378.4 397.4 330.667 369.167 312 349.5Z" fill="url(#paint0_linear_2_537)"/>
<path d="M383 341C369.8 352.6 355.833 345.833 350.5 341C345.167 336.167 340.5 328.5 339.5 321C338.5 313.5 343.833 307.167 350.5 303.5C363.7 293.9 383 301 389 307C400.2 320.6 389.667 335.333 383 341Z" fill="black"/>
<ellipse cx="366.5" cy="312" rx="14.5" ry="7" fill="#FAFBEF"/>
<path d="M542.304 646.602L576 646.948V643.675C575.805 643.695 575.606 643.716 575.402 643.737C571.495 644.137 565.92 644.682 559.239 645.262C554.158 645.704 548.43 646.167 542.304 646.602ZM423.295 645.38L454.033 645.696C450.229 644.887 446.821 643.849 444.045 642.505C439.763 640.432 435.269 636.676 435.798 630.568C436.679 620.413 441.093 613.195 446.48 608.031C434.418 612.919 428.684 619.159 425.875 624.995C422.598 631.801 422.776 638.886 423.295 645.38Z" fill="#D0B1AD" stroke="#D0B1AD" stroke-width="10"/>
<path d="M170.21 640.33C173.66 640.614 177.903 640.945 182.726 641.285C196.011 642.22 213.735 643.227 231.422 643.499C249.044 643.771 266.887 643.321 280.301 641.271C286.948 640.255 292.938 638.787 297.331 636.572C301.584 634.427 306 630.629 305.482 624.573C305.436 624.043 305.382 623.522 305.318 623.009C308.552 629.531 308.295 636.699 307.243 644.011H172.366L170.21 640.33Z" fill="#D0B1AD" stroke="#D0B1AD" stroke-width="10"/>
<path d="M308 514C302.833 488 278.8 434.7 226 423.5C224.71 433.62 223.801 444.075 222.425 457M308 514C293.783 496 256.765 459.4 222.425 457M308 514C314.101 526.202 315.366 554.926 315 579.5M222.425 457C218.258 496.117 214.383 544.116 214.961 577M214.961 577C215.302 596.418 221 608 221 608C221 608 267.5 577.5 312.5 619C313.475 608.733 314.766 595.203 315 579.5M214.961 577C234.43 564 281.547 548.3 315 579.5" stroke="black" stroke-width="8"/>
<path d="M420.236 618C455.836 583.6 496.069 601.333 511.736 614.5C516.113 610.498 517.207 598.432 517.5 578.5M420.236 618C419.272 607.842 418.307 593.022 418.061 577.5M420.236 618L418.061 653.5M425.236 514C430.403 488 445 437.5 507.5 426C508.79 436.12 509.435 444.075 510.811 457M425.236 514C439.453 496 476.471 459.4 510.811 457M425.236 514C419.094 526.285 417.667 552.783 418.061 577.5M510.811 457C514.936 495.722 517.984 545.649 517.5 578.5M418.061 577.5C435.068 565.167 478.133 550.1 517.5 578.5" stroke="black" stroke-width="8"/>
<path d="M221.725 247.702L227.999 242.535L219.934 241.527C216.907 241.149 212.228 240.018 208.214 237.932C205.056 236.291 202.773 234.316 201.646 232.046L213.846 224.474L218.012 221.888L214.212 218.788C211.279 216.395 207.041 212.104 204.005 207.177C200.907 202.149 199.504 197.203 200.832 193.071L201.385 191.352L200.305 189.906C195.819 183.898 190.371 174.243 188.427 164.853C187.461 160.183 187.407 155.802 188.564 152.036C189.694 148.361 192.036 145.06 196.301 142.501L203.663 138.084L195.311 136.095C194.062 135.798 192.05 134.932 190.457 133.408C189.579 132.569 188.838 131.546 188.402 130.276C196.954 129.697 208.699 128.41 219.958 126.17C226.459 124.877 232.876 123.252 238.455 121.23C243.967 119.232 248.971 116.74 252.385 113.562L256.7 109.544L251.107 107.68C250.036 107.323 248.644 106.521 247.846 105.487C247.483 105.016 247.287 104.557 247.229 104.093C247.219 104.017 247.212 103.934 247.21 103.845C252.784 103.581 260.585 103.629 268.261 104.514C277.348 105.563 285.445 107.704 289.801 111.223L295.217 107.121C294.271 104.914 292.999 101.441 292.259 98.2576C291.887 96.6556 291.684 95.2729 291.675 94.2283C291.674 94.1819 291.674 94.1372 291.675 94.0942C292.946 94.4246 294.697 95.153 296.754 96.1964C300.71 98.2028 305.151 101.04 308.158 103.133C310.871 106.187 314.84 110.835 318.252 115.214C320.018 117.481 321.599 119.63 322.772 121.424C323.36 122.322 323.816 123.087 324.136 123.705C324.296 124.012 324.407 124.257 324.482 124.442C324.55 124.613 324.569 124.691 324.569 124.691L325.497 129.33L329.664 127.079C336.899 123.17 347.924 117.309 357.479 112.43C362.261 109.988 366.647 107.806 369.996 106.241C371.676 105.456 373.054 104.845 374.072 104.438C374.585 104.233 374.959 104.098 375.21 104.02C375.22 104.017 375.229 104.014 375.237 104.011C376.169 104.095 377.855 104.648 379.076 106.017C380.216 107.295 381.377 109.775 380.114 114.617L379.226 118.019L382.633 118.891C386.162 119.794 391.52 121.294 396.113 122.852C398.42 123.635 400.45 124.404 401.936 125.093C402.685 125.44 403.207 125.726 403.53 125.94C403.544 125.949 403.558 125.958 403.571 125.967L406.585 131.996L409.663 125.498C411.77 121.05 416.094 114.014 422.079 107.694C427.65 101.811 434.403 96.8205 441.887 94.845C441.958 95.0817 442.027 95.3916 442.078 95.7932C442.326 97.7319 442.027 101.318 439.736 107.236L436.95 114.433L444.2 111.788C450.216 109.593 459.904 106.684 469.302 105.115C474.002 104.33 478.523 103.899 482.422 104.025C484.795 104.101 486.797 104.381 488.416 104.835C487.609 105.731 486.206 106.81 483.771 107.723L475.517 110.818L483.647 114.228L514.647 127.228L515.193 127.457L515.785 127.493L547.85 129.467C548.104 129.555 548.323 129.648 548.508 129.739C548.203 130.034 547.718 130.44 546.954 130.943C545.163 132.123 542.264 133.562 537.787 135.217L532.441 137.193L536.621 141.067C539.629 143.855 543.544 149.164 545.221 155.74C546.861 162.167 546.4 169.883 540.648 177.972L540.629 177.997L540.612 178.024L534.112 187.524L533.308 188.698L533.552 190.1C534.147 193.521 534.307 199.141 532.825 204.55C531.355 209.912 528.387 214.726 522.973 217.351L518.797 219.375L521.892 222.834C523.406 224.526 525.887 227.012 528.475 229.009C529.762 230.002 531.19 230.963 532.619 231.628C532.638 231.637 532.657 231.645 532.676 231.654C532.08 233.009 531.139 234.499 529.732 235.857C527.215 238.286 522.993 240.5 516 240.5H506.563L513.718 246.654L537.867 267.422C538.996 272.293 539.823 279.433 538.931 286.111C537.965 293.341 535.136 299.177 529.506 301.835L525.916 303.53L528.047 306.879L533.914 316.098C528.28 325.69 522.979 330.206 517.735 332.475C512.014 334.951 505.892 335 498 335H487.149L495.955 341.34C500.66 344.728 508.842 347.62 516.214 349.905C519.674 350.978 523.096 351.957 526.093 352.815L526.896 353.044C530.131 353.971 532.703 354.718 534.323 355.296C534.515 355.365 534.962 355.615 535.574 356.47C536.182 357.32 536.809 358.568 537.413 360.255C538.62 363.631 539.544 368.215 540.228 373.49C541.589 383.986 541.916 396.506 542 405.984L540.001 517.938L539.974 519.444L541.049 520.499C548.835 528.134 564.943 555.937 561.013 602.707L560.851 604.626L562.386 605.789C567.255 609.48 573.747 616.076 577.422 623.706C581.038 631.215 581.78 639.29 576.178 646.93L572.093 652.5H579H605.533C605.582 652.605 605.624 652.703 605.661 652.794C605.881 653.348 605.875 653.63 605.869 653.702C605.867 653.724 605.864 653.738 605.863 653.743C605.862 653.744 605.862 653.745 605.861 653.745C605.857 653.752 605.846 653.765 605.828 653.783C605.796 653.815 605.741 653.861 605.652 653.913C605.597 653.946 605.539 653.975 605.481 654H551H526H481H453.5H276.5H257.5H205.227L182.653 651.056L161.008 645.644L125.926 633.291C123.725 632.103 121.328 630.983 119.039 629.914C117.634 629.258 116.27 628.62 115.018 627.998C111.45 626.225 108.143 624.294 105.162 621.594C99.3408 616.32 94.1802 607.572 91.9883 589.691C91.5823 582.294 91.3874 570.043 91.8847 557.564C92.3875 544.951 93.587 532.455 95.8574 524.489C96.3088 523.036 100.163 517.067 113.278 517.001C120.859 517.994 132.887 520.342 144.463 524.173C156.332 528.1 166.989 533.354 172.311 539.741L175.242 543.258L177.867 539.507L191.867 519.507L192.523 518.57L192.499 517.427L190.5 421.964V372.876C191.219 369.696 193.051 364.778 196.258 360.3C199.538 355.721 204.075 351.838 210.112 350.45L236.95 346.971L238.676 346.747L239.539 345.236L241.539 341.736L244.941 335.782L238.125 336.52L238.125 336.52L238.124 336.52L238.123 336.52L238.122 336.52L238.101 336.523C238.08 336.525 238.047 336.528 238.001 336.533C237.911 336.542 237.771 336.555 237.588 336.571C237.222 336.602 236.683 336.645 236.008 336.686C234.656 336.767 232.778 336.842 230.677 336.812C226.33 336.75 221.583 336.242 218.451 334.815C214.869 333.183 211.056 329.273 207.95 325.33C206.45 323.427 205.208 321.636 204.341 320.322C203.908 319.666 203.572 319.133 203.346 318.768C203.234 318.586 203.149 318.446 203.094 318.354C203.066 318.308 203.046 318.275 203.033 318.254L203.021 318.232L203.019 318.23L203.019 318.229L203.019 318.229L203.019 318.228L202.948 318.108L202.881 318.012L202.877 318.006C202.873 318 202.867 317.992 202.859 317.98C202.85 317.965 202.837 317.945 202.822 317.922C202.768 317.835 202.683 317.693 202.583 317.507C202.379 317.127 202.144 316.619 201.981 316.068C201.63 314.885 201.78 314.219 202.157 313.778L202.258 313.66L202.348 313.534L204.848 310.034L206.929 307.121L203.97 305.107C200.811 302.956 197.166 298.239 195.713 292.272C194.301 286.471 194.966 279.535 200.274 272.634L201.925 270.488L200.263 268.351L198.852 266.538L221.725 247.702ZM441.549 94.1463C441.549 94.1459 441.555 94.1504 441.564 94.1608C441.553 94.1519 441.548 94.1467 441.549 94.1463ZM375.414 103.963C375.414 103.963 375.407 103.965 375.395 103.967C375.408 103.964 375.414 103.963 375.414 103.963ZM403.759 126.109C403.758 126.109 403.747 126.1 403.729 126.082C403.751 126.1 403.76 126.109 403.759 126.109ZM605.862 653.746C605.862 653.745 605.863 653.744 605.863 653.744L605.862 653.746Z" stroke="black" stroke-width="7"/>
<path d="M257 379.5C258.008 383.371 258.009 383.371 258.009 383.371L258.01 383.37L258.014 383.369L258.027 383.366L258.073 383.354L258.249 383.307C258.401 383.267 258.624 383.208 258.907 383.131C259.474 382.978 260.288 382.755 261.282 382.475C263.268 381.914 265.986 381.119 268.907 380.185C271.82 379.252 274.976 378.168 277.825 377.025C278.218 376.867 278.61 376.707 279 376.543V378.183V378.889L279.242 379.553C279.413 380.023 279.971 381.573 280.431 382.853L280.47 382.96L280.514 383.065C281.41 385.172 283.011 386.957 284.537 388.349C286.114 389.788 287.906 391.069 289.535 392.117C291.176 393.173 292.729 394.041 293.867 394.645C294.439 394.948 294.912 395.187 295.247 395.353C295.403 395.43 295.529 395.491 295.622 395.536C295.702 395.583 295.809 395.645 295.942 395.722C296.244 395.896 296.678 396.143 297.219 396.444C298.299 397.043 299.815 397.86 301.564 398.73C304.978 400.429 309.586 402.489 313.617 403.401C353.822 412.504 381.16 411.303 398.628 407.666C407.359 405.848 413.599 403.427 417.723 401.403C419.784 400.392 421.311 399.482 422.354 398.8C422.874 398.459 423.274 398.175 423.557 397.965C423.699 397.859 423.812 397.772 423.896 397.706C423.939 397.672 423.974 397.644 424.002 397.621L424.039 397.591L424.054 397.578L424.06 397.573C424.063 397.571 424.066 397.568 421.5 394.5L424.066 397.568L424.538 397.174L424.869 396.656L430.039 388.578L435.527 394.676L437.025 396.341L439.228 395.933C446.408 394.604 450.7 389.298 453.112 384.129C454.396 381.378 455.246 378.48 455.774 375.817L469.098 383.019L470.607 383.835L472.238 383.303C482.747 379.882 488.272 369.997 491.099 360.406C493.553 352.082 494.246 343.133 494.121 336.44L495.042 336.163C494.87 338.254 494.782 340.537 494.752 342.899C494.681 348.435 494.928 354.881 495.372 361.301C496.235 373.765 497.88 386.655 499.557 392.756C499.928 396.699 498.629 400.623 496.567 404.118C494.499 407.623 491.852 410.369 490.113 411.786C476.019 421.372 454.602 428.07 432.486 432.529C410.416 436.98 388.14 439.108 372.82 439.796L369 439.968V443.792V463.788C368.24 463.84 367.489 463.91 366.75 464H365.5V444.124V440.083L361.46 440.124C327.451 440.466 299.184 435.372 279.443 430.202C269.574 427.618 261.843 425.016 256.6 423.07C253.978 422.097 251.979 421.288 250.647 420.727C249.983 420.449 249.485 420.231 249.158 420.086C243.47 415.229 239.407 410.113 236.811 406.038C235.479 403.948 234.56 402.175 234.01 400.896C233.898 400.635 233.805 400.404 233.73 400.203C234.921 397.898 235.81 394.897 236.523 391.834C237.455 387.823 238.216 383.073 238.831 378.201C239.956 369.283 240.623 359.703 240.922 352.967L241.375 352.599C241.466 352.972 241.564 353.345 241.665 353.72C242.712 357.563 244.395 361.933 246.122 365.973C247.86 370.037 249.694 373.883 251.089 376.704C251.788 378.117 252.379 379.279 252.797 380.091C253.006 380.496 253.172 380.815 253.287 381.033C253.344 381.143 253.388 381.227 253.419 381.285L253.454 381.351L253.464 381.37L253.466 381.375L253.467 381.376C253.468 381.377 253.468 381.377 257 379.5ZM257 379.5L258.008 383.371L254.951 384.167L253.468 381.377L257 379.5ZM369 649H366V538H369V649Z" stroke="black" stroke-width="8"/>
<path d="M193 518C200.667 511.5 216.7 498.6 219.5 499" stroke="black" stroke-width="9"/>
<path d="M215.323 508C215.323 508 204.791 512.433 198.888 516.618C186.828 525.167 175.262 546.021 175.262 546.021C175.262 546.021 176.135 575.505 177.5 595.5C177.5 595.5 171.266 603.196 166.279 612.5M237.5 649.5C237.5 649.5 172.882 659.84 161.5 637.5C158.168 630.959 161.697 621.051 166.279 612.5M237.5 649.5C208.3 643.5 213.333 621.333 219.5 611C200.7 593.8 176.186 604.833 166.279 612.5M237.5 649.5L311 648L313.5 610M237.5 649.5L235.5 654C235.5 654 86.5 652 120.5 652.5" stroke="black" stroke-width="7"/>
<path d="M448.364 167.094L450.126 167.484L451 169.063C452.96 172.606 455.945 176.375 460.044 181.493L460.306 181.82C464.291 186.794 469.123 192.826 474.487 200.628C484.951 215.85 493.194 218.324 497.273 217.967C497.218 217.972 497.222 217.97 497.294 217.943C497.455 217.881 497.955 217.691 498.885 217.157C500.059 216.482 501.526 215.494 503.218 214.248C506.59 211.763 510.579 208.457 514.437 205.113C517.593 202.378 520.623 199.65 523.102 197.382C517.084 201.452 508.598 201.798 500.603 199.214C492.109 196.468 483.557 190.272 477.616 180.464C473.357 173.432 468.306 166.324 464.297 160.947C462.297 158.265 460.567 156.028 459.339 154.463C458.915 153.924 458.552 153.465 458.258 153.096C458.025 153.052 457.761 153.006 457.47 152.961C456.15 152.755 454.3 152.568 452.202 152.643C447.969 152.794 443.099 153.985 439.302 157.8C437.2 159.912 436.809 161.164 436.762 161.625C436.741 161.834 436.727 162.174 437.442 162.84C438.253 163.597 439.667 164.41 441.707 165.188C443.694 165.947 446.001 166.572 448.364 167.094ZM528.615 192.162C528.448 192.355 528.281 192.545 528.115 192.732C528.272 192.585 528.41 192.454 528.53 192.341C528.557 192.285 528.585 192.225 528.615 192.162ZM459.424 153.352C459.423 153.352 459.421 153.352 459.417 153.351L459.42 153.351L459.424 153.352Z" stroke="black" stroke-width="8"/>
<circle cx="590.5" cy="426.5" r="9.5" fill="#FDFDF2"/>
<path d="M179.943 630C169.18 640.443 175.458 648.351 179.943 651H201C197.88 647.973 193.162 640.103 199.245 632.838" stroke="black" stroke-width="9" stroke-linecap="round"/>
<path d="M277.5 652C277.5 652 288 640 281.5 628M248.5 651C245.333 647 242.1 634.4 248.5 626" stroke="black" stroke-width="9" stroke-linecap="round"/>
<path d="M550.331 632C561.094 642.443 554.815 650.351 550.331 653H529.273C532.393 649.973 537.112 642.103 531.028 634.838" stroke="black" stroke-width="9" stroke-linecap="round"/>
<path d="M452.774 653C452.774 653 442 640 447.274 627M481.773 652C484.94 648 488.174 635.4 481.774 627" stroke="black" stroke-width="9" stroke-linecap="round"/>
<defs>
<linearGradient id="paint0_linear_2_537" x1="366" y1="355" x2="366" y2="379.5" gradientUnits="userSpaceOnUse">
<stop stop-opacity="0"/>
<stop offset="1"/>
</linearGradient>
</defs>
</svg>
